<svg width="1266" height="382" viewBox="0 0 1266 382" fill="none" xmlns="http://www.w3.org/2000/svg">
<path d="M739.703 97.396C739.703 110.695 728.921 121.473 715.619 121.473C702.317 121.473 691.505 110.695 691.505 97.396C691.505 84.0973 702.286 73.3187 715.619 73.3187C728.952 73.3187 739.703 84.0973 739.703 97.396Z" fill="#1C1C1C"/>
<path d="M484.437 195.982C493.305 184.293 498.65 169.749 498.65 153.931C498.65 115.462 467.459 84.2795 428.98 84.2795H341.421V329.06H435.388C477.148 329.06 511.011 295.206 511.011 253.458C511.011 230.444 500.685 209.858 484.437 195.982ZM387.432 130.309H428.98C442.039 130.309 452.639 140.905 452.639 153.961C452.639 167.017 442.009 177.613 428.98 177.613H387.432V130.309ZM435.388 283.061H387.432V223.885H435.388C451.697 223.885 464.999 237.154 464.999 253.489C464.999 269.824 451.727 283.092 435.388 283.092" fill="#1C1C1C"/>
<path d="M647.133 270.886C638.113 280.572 625.934 286.583 612.48 286.583C584.873 286.583 562.398 261.413 562.398 230.474C562.398 199.535 584.873 174.395 612.48 174.395C626.876 174.395 639.814 181.257 648.955 192.157L677.716 160.55C660.982 142.848 637.931 131.888 612.48 131.888C561.366 131.888 519.91 176.004 519.91 230.444C519.91 284.883 561.366 329 612.48 329C637.171 329 659.555 318.707 676.167 301.916L647.133 270.825V270.886Z" fill="#1C1C1C"/>
<path d="M736.636 141.148H694.633V329.03H736.636V141.148Z" fill="#1C1C1C"/>
<path d="M286.055 71.831C274.362 65.2424 259.663 65.88 248.577 73.4402C242.534 77.5695 237.067 83.9152 235.974 93.6311C233.422 116.949 235.973 151.137 159.135 197.197C82.3278 243.257 14.601 277.839 37.5309 330.639C37.5309 330.639 46.2777 347.399 63.012 347.004C79.7463 346.64 94.6887 333.524 94.6887 312.786C94.6887 292.049 92.5627 268.609 154.762 229.411C216.961 190.214 253.892 179.253 286.298 131.918C307.163 101.434 299.661 79.4823 286.055 71.831Z" fill="#F5333F"/>
<path d="M124.938 289.498C124.088 309.871 150.055 309.902 171.193 305.894C192.3 301.886 225.435 293.142 233.088 264.753C238.828 243.469 229.808 231.172 218.51 226.831C214.775 225.404 210.735 225.009 206.757 225.434C204.023 225.707 201.351 226.557 198.8 227.59C184.313 233.48 126.244 258.954 124.968 289.529" fill="#FFD600"/>
<path d="M220.241 200.597C219.543 202.935 220.272 206.245 227.227 211.224C238.889 219.604 254.894 233.51 249.792 266.605C244.69 299.7 258.903 305.165 275.638 304.801C292.402 304.437 310.23 276.048 289.821 250.574C269.442 225.1 265.433 221.426 231.57 197.227C231.57 197.227 222.853 192.005 220.211 200.628" fill="#00953B"/>
<path d="M149.72 27.6235C134.93 18.8184 116.161 18.5755 101.887 28.2003C90.0723 36.1856 79.5944 51.64 84.9396 81.6076C95.6605 141.512 200.531 219.786 216.961 190.214C216.961 190.214 221.851 183.898 206.24 179.496C190.66 175.124 165.787 152.716 163.843 117.162C162.203 87.1336 181.063 46.3266 149.69 27.6235" fill="#0071CE"/>
<path d="M789.005 147.688L811.692 137V300.5C811.692 302.5 811.692 306.228 812.505 307.34C813.518 308.726 815.505 309 818.005 309H836.005L826.005 329H804.505C803.005 329 795.277 327.5 792.005 321.5C788.734 315.5 789.005 307.34 789.005 307.34V147.688Z" fill="#00953B"/>
<path d="M1217.37 318.953C1225.81 312.213 1230.04 302.983 1230.04 291.263C1230.04 284.492 1228.67 278.48 1225.94 273.258C1223.2 268.035 1218.86 263.39 1212.91 259.322C1206.95 255.223 1199.18 251.458 1189.64 247.966C1177.92 243.624 1169.81 239.768 1165.32 236.428C1160.85 233.088 1158.6 229.202 1158.6 224.769C1158.6 220.336 1160.58 216.541 1164.53 213.869C1168.47 211.228 1173.88 209.892 1180.77 209.892C1192.44 209.892 1202.25 214.142 1210.23 222.674L1225.88 209.649C1220.41 203.121 1213.82 198.172 1206.19 194.711C1198.54 191.28 1190.16 189.549 1181.02 189.549C1167.72 189.549 1156.9 192.798 1148.61 199.326C1140.32 205.854 1136.16 214.325 1136.16 224.739C1136.16 234.212 1139.35 242.167 1145.76 248.604C1152.13 255.04 1162.67 260.991 1177.37 266.457C1184.84 269.25 1190.83 271.892 1195.29 274.412C1199.76 276.932 1202.98 279.573 1204.95 282.367C1206.89 285.16 1207.9 288.287 1207.9 291.748C1207.9 297.062 1205.71 301.191 1201.37 304.197C1197.02 307.203 1190.92 308.691 1183.11 308.691C1177.56 308.691 1171.91 307.294 1166.17 304.531C1160.43 301.738 1155.2 297.851 1150.53 292.811L1134.37 306.626C1139.83 313.488 1146.91 318.953 1155.57 322.991C1164.22 327.029 1173.24 329.064 1182.63 329.064C1197.42 329.064 1209.02 325.693 1217.46 318.953M1035.21 303.043C1029.68 299.794 1025.28 295.422 1021.97 289.927V228.139C1025 223.008 1029.44 218.788 1035.27 215.418C1041.1 212.078 1047.02 210.408 1053 210.408C1064.21 210.408 1072.75 214.567 1078.64 222.856C1084.5 231.145 1087.45 243.26 1087.45 259.17C1087.45 275.08 1084.5 286.86 1078.58 295.27C1072.65 303.711 1064.15 307.932 1053 307.932C1046.66 307.932 1040.73 306.292 1035.21 303.043ZM1096.31 310.725C1105.88 298.519 1110.65 281.334 1110.65 259.17C1110.65 244.899 1108.4 232.572 1103.88 222.128C1099.35 211.683 1092.97 203.667 1084.71 198.02C1076.45 192.373 1066.67 189.549 1055.37 189.549C1049.03 189.549 1042.92 190.824 1037.06 193.405C1031.2 195.955 1026.16 199.569 1022 204.153V137.66L999.309 148.347V325.906H1022V314.429C1027.37 319.469 1032.78 323.173 1038.15 325.511C1043.53 327.849 1049.54 329.033 1056.16 329.033C1073.38 329.033 1086.78 322.931 1096.31 310.725ZM883.232 302.588C878.191 298.155 875.67 292.113 875.67 284.461C875.67 276.81 878.494 270.92 884.143 266.548C889.792 262.176 897.476 259.959 907.225 259.959C912.358 259.959 917.733 260.749 923.382 262.297C929.031 263.845 934.073 266.032 938.507 268.825V291.779C933.799 297.335 928.454 301.647 922.41 304.683C916.367 307.719 910.262 309.237 904.097 309.237C895.229 309.237 888.274 307.021 883.232 302.588ZM920.922 325.086C927.452 322.445 933.313 318.619 938.537 313.67V325.936H959.918V237.552C959.918 221.642 955.97 209.679 948.043 201.633C940.117 193.587 928.272 189.579 912.449 189.579C904.097 189.579 895.654 190.824 887.089 193.284C878.525 195.773 870.901 199.204 864.19 203.637L870.719 222.674C876.642 218.515 882.989 215.235 889.822 212.898C896.656 210.56 903.246 209.376 909.563 209.376C919.464 209.376 926.784 211.774 931.461 216.602C936.168 221.429 938.507 229.02 938.507 239.343V248.725C933.465 245.871 928.09 243.715 922.41 242.258C916.701 240.831 910.596 240.102 904.097 240.102C894.014 240.102 885.236 241.924 877.765 245.507C870.294 249.12 864.493 254.221 860.424 260.84C856.324 267.459 854.289 275.231 854.289 284.188C854.289 298.094 858.419 309.055 866.68 317.04C874.941 325.026 886.269 329.033 900.726 329.033C907.68 329.033 914.423 327.697 920.953 325.056" fill="#00953B"/>
</svg>
